<svg width="97" height="56" viewBox="0 0 97 56" fill="none" xmlns="http://www.w3.org/2000/svg">
<ellipse cx="4.87459" cy="3.35314" rx="4.87459" ry="3.35314" transform="matrix(-0.805284 -0.59289 -0.59289 0.805284 11.8503 11.826)" fill="#0C0C0C"/>
<ellipse cx="6.00332" cy="26.9571" rx="4.87459" ry="3.35314" transform="rotate(143.14 6.00332 26.9571)" fill="#0C0C0C"/>
<ellipse cx="8.8768" cy="19.1158" rx="4.75146" ry="4.16967" transform="rotate(89.7514 8.8768 19.1158)" fill="#0C0C0C"/>
<ellipse cx="9.18538" cy="23.3801" rx="4.75146" ry="4.65449" transform="rotate(89.7514 9.18538 23.3801)" fill="#0C0C0C"/>
<ellipse cx="9.14918" cy="15.0424" rx="4.75146" ry="4.65449" transform="rotate(89.7514 9.14918 15.0424)" fill="#0C0C0C"/>
<path fill-rule="evenodd" clip-rule="evenodd" d="M1.97523 26.1038C2.18944 26.1029 2.36385 26.2758 2.36478 26.49C2.36524 26.5965 2.33098 26.6807 2.30044 26.7361C2.27959 26.774 2.25579 26.8062 2.24053 26.8259C2.1891 26.9788 2.04499 27.0893 1.8745 27.0901C1.66029 27.091 1.48588 26.9181 1.48495 26.7039C1.48446 26.5916 1.52394 26.5053 1.55371 26.4541C1.57168 26.4232 1.59216 26.3954 1.60621 26.3773C1.65484 26.2196 1.80132 26.1046 1.97523 26.1038ZM2.17085 26.4909C2.17038 26.3838 2.08318 26.2973 1.97607 26.2978C1.88536 26.2982 1.80925 26.3609 1.78854 26.4453L1.78344 26.4661L1.77004 26.4828C1.75913 26.4964 1.738 26.523 1.72135 26.5516C1.70155 26.5857 1.6786 26.6375 1.67888 26.703C1.67935 26.8101 1.76655 26.8966 1.87366 26.8961C1.96237 26.8957 2.03715 26.8358 2.05976 26.7541L2.06503 26.735L2.07853 26.7181C2.09056 26.703 2.1127 26.675 2.1306 26.6425L2.21327 26.6881L2.21438 26.6887M2.17085 26.4909C2.17112 26.5544 2.15079 26.6059 2.1306 26.6425L2.17085 26.4909ZM2.21327 26.6881L2.1306 26.6425L2.21327 26.6881Z" fill="#0C0C0C"/>
<path fill-rule="evenodd" clip-rule="evenodd" d="M1.97594 26.2011C2.1366 26.2004 2.26741 26.3301 2.26811 26.4907C2.26848 26.5757 2.24118 26.6436 2.21581 26.6896C2.19361 26.7299 2.16689 26.7634 2.15467 26.7788C2.15427 26.7793 2.15388 26.7798 2.1535 26.7802C2.11961 26.9027 2.00766 26.9928 1.87438 26.9934C1.71372 26.9941 1.58291 26.8644 1.58221 26.7037C1.58183 26.6148 1.61304 26.5458 1.63783 26.5032C1.65847 26.4677 1.68369 26.4361 1.69467 26.4224C1.72573 26.2959 1.83969 26.2017 1.97594 26.2011Z" fill="#0C0C0C"/>
<path fill-rule="evenodd" clip-rule="evenodd" d="M14.3907 22.0197L13.6214 22.8928L12.4765 21.884L12.4543 16.7743L13.6179 16.7693L13.6379 21.3564L14.3907 22.0197ZM14.1169 22.037L13.4443 21.4443L13.4249 16.9641L12.6491 16.9674L12.6701 21.796L13.6041 22.619L14.1169 22.037Z" fill="#0C0C0C"/>
<path fill-rule="evenodd" clip-rule="evenodd" d="M13.6119 22.7545L12.5725 21.8386L12.5509 16.8695L13.5206 16.8653L13.5403 21.399L14.253 22.027L13.6119 22.7545Z" fill="#0C0C0C"/>
<path fill-rule="evenodd" clip-rule="evenodd" d="M4.98597 14.1585L4.92023 14.0872C4.4037 13.5271 3.64 12.6789 3.02678 11.9541C2.71875 11.5901 2.45666 11.2665 2.28353 11.0293C2.19468 10.9076 2.14252 10.8266 2.11877 10.7825C2.11509 10.7757 2.1134 10.7721 2.1131 10.7715L2.11271 10.7706L2.11171 10.7685C2.11159 10.7682 2.11074 10.7664 2.10955 10.7642C2.10921 10.7636 2.10705 10.7596 2.10388 10.755C2.10339 10.7543 2.09651 10.744 2.08476 10.7347L2.08449 10.7345C2.08058 10.7313 2.05623 10.7117 2.01916 10.7137C1.99565 10.715 1.97353 10.7247 1.95679 10.741C1.94449 10.7529 1.93781 10.7657 1.93416 10.7749C1.93399 10.7753 1.93383 10.7757 1.93367 10.7762C1.93311 10.7776 1.93263 10.779 1.93222 10.7803C1.92676 10.7969 1.92731 10.8107 1.92744 10.814L1.92745 10.8142C1.92767 10.8202 1.92842 10.8249 1.92881 10.8271C1.92962 10.8318 1.93061 10.8354 1.93095 10.8366C1.93178 10.8396 1.93258 10.8419 1.93279 10.8425C1.93338 10.8442 1.93388 10.8455 1.93401 10.8458L1.93476 10.8476L1.93496 10.8481C1.93513 10.8485 1.93697 10.8533 1.93916 10.8617C1.94159 10.871 1.95021 10.9056 1.94669 10.9549C1.94414 10.9906 1.934 11.045 1.9024 11.1015L1.22304 10.428L1.15478 10.4968C1.02291 10.6299 0.986623 10.7858 0.979478 10.8858C0.972607 10.9819 0.989006 11.0611 1.00109 11.1073C1.0253 11.1998 1.06547 11.2808 1.09453 11.3347C1.1568 11.4502 1.24676 11.5826 1.3437 11.7154C1.54207 11.9871 1.82592 12.3363 2.13845 12.7057C2.76633 13.4479 3.54217 14.3094 4.06486 14.8761L4.1306 14.9474L4.98597 14.1585ZM4.71198 14.1474L4.14173 14.6733C3.62229 14.1084 2.88619 13.2893 2.2865 12.5805C1.97473 12.212 1.6945 11.867 1.50034 11.6011C1.40478 11.4702 1.3211 11.3463 1.26523 11.2427C1.23878 11.1936 1.2071 11.1284 1.1887 11.0581C1.17955 11.0232 1.16812 10.9667 1.17292 10.8996C1.17655 10.8488 1.19084 10.7791 1.23239 10.7103L1.91287 11.3849L1.98114 11.3161C2.04543 11.2512 2.08445 11.1812 2.10786 11.1174C2.11404 11.126 2.12038 11.1347 2.12689 11.1437C2.30423 11.3866 2.56995 11.7144 2.87873 12.0794C3.46884 12.7769 4.19682 13.5871 4.71198 14.1474Z" fill="#0C0C0C"/>
<path fill-rule="evenodd" clip-rule="evenodd" d="M14.5527 14.8503C14.5993 15.3617 14.5995 15.8909 14.4812 16.326C14.3613 16.7665 14.066 17.2604 13.4426 17.3463L13.3466 17.3595L13.1878 16.2068L13.2831 16.1937C13.2839 16.1928 13.285 16.1918 13.2862 16.1904C13.2997 16.1752 13.3282 16.1313 13.3583 16.0206C13.4219 15.7869 13.4364 15.4227 13.3939 14.9558C13.3102 14.0372 13.0279 12.9348 12.7891 12.1978L12.7593 12.1056L13.8662 11.747L13.8961 11.8392C14.1488 12.6193 14.4582 13.8125 14.5527 14.8503ZM13.2802 16.1961C13.2802 16.1961 13.2803 16.1961 13.2804 16.196L13.2802 16.1961ZM14.294 16.2751C14.4033 15.8735 14.4055 15.3718 14.3596 14.8679C14.2705 13.8897 13.9855 12.7636 13.7412 11.9913L13.0032 12.2304C13.2376 12.9726 13.505 14.0378 13.5871 14.9382C13.6302 15.4124 13.6182 15.8041 13.5455 16.0715C13.5119 16.195 13.4733 16.2719 13.4311 16.3193C13.4219 16.3297 13.4124 16.3387 13.4028 16.3465L13.5116 17.1366C13.9598 17.0321 14.1905 16.6558 14.294 16.2751ZM13.3091 16.3858L13.3103 16.3857L13.3057 16.352L13.3091 16.3858Z" fill="#0C0C0C"/>
<path fill-rule="evenodd" clip-rule="evenodd" d="M13.5279 23.537C13.4514 24.4663 13.1765 25.5786 12.943 26.3213L13.868 26.6121C14.1128 25.8335 14.4097 24.6452 14.4944 23.6166C14.5362 23.1085 14.5307 22.5931 14.4133 22.1757C14.2944 21.7531 14.0149 21.3076 13.4469 21.2344L13.3229 22.1961C13.3235 22.1962 13.3243 22.1963 13.3251 22.1963C13.3436 22.1981 13.4141 22.2046 13.4798 22.4384C13.5501 22.6883 13.5667 23.0661 13.5279 23.537Z" fill="#0C0C0C"/>
<path fill-rule="evenodd" clip-rule="evenodd" d="M13.5419 26.1309C13.7025 26.1302 13.8333 26.2598 13.834 26.4205L13.8341 26.4298C13.8348 26.5904 13.7051 26.7213 13.5444 26.722C13.3838 26.7226 13.253 26.593 13.2523 26.4323L13.2522 26.423C13.2515 26.2624 13.3812 26.1316 13.5419 26.1309Z" fill="#0C0C0C"/>
<path fill-rule="evenodd" clip-rule="evenodd" d="M14.5908 23.6235C14.6329 23.1117 14.6285 22.5826 14.5064 22.1485C14.3828 21.7091 14.0831 21.2177 13.4591 21.1372L13.3629 21.1248L13.2141 22.2789L13.3095 22.2912C13.3104 22.292 13.3114 22.2931 13.3127 22.2945C13.3263 22.3096 13.3552 22.3532 13.3863 22.4637C13.4519 22.6968 13.4696 23.0609 13.4311 23.5281C13.3554 24.4474 13.0826 25.5521 12.8503 26.2912L12.8212 26.3837L13.9312 26.7327L13.9603 26.6402C14.2062 25.858 14.5053 24.6621 14.5908 23.6235ZM13.3066 22.2888C13.3066 22.2888 13.3067 22.2888 13.3068 22.2889L13.3066 22.2888ZM14.3197 22.201C14.4324 22.6017 14.439 23.1033 14.3975 23.6076C14.3169 24.5865 14.0417 25.7151 13.8041 26.4894L13.064 26.2568C13.292 25.5126 13.5502 24.4451 13.6244 23.544C13.6634 23.0694 13.648 22.6778 13.573 22.4111C13.5383 22.2879 13.499 22.2113 13.4564 22.1643C13.4471 22.154 13.4376 22.1451 13.4279 22.1374L13.5299 21.3464C13.9789 21.447 14.2129 21.8213 14.3197 22.201ZM13.3339 22.0988L13.3351 22.099L13.3307 22.1327L13.3339 22.0988Z" fill="#0C0C0C"/>
<path fill-rule="evenodd" clip-rule="evenodd" d="M13.5412 26.0337C13.7554 26.0328 13.9298 26.2057 13.9308 26.4199L13.9308 26.4292C13.9317 26.6434 13.7588 26.8178 13.5446 26.8188C13.3304 26.8197 13.156 26.6468 13.1551 26.4326L13.155 26.4233C13.1541 26.2091 13.327 26.0347 13.5412 26.0337ZM13.7368 26.4208C13.7364 26.3136 13.6492 26.2272 13.542 26.2277C13.4349 26.2281 13.3485 26.3153 13.349 26.4224L13.349 26.4317C13.3495 26.5388 13.4367 26.6253 13.5438 26.6248C13.6509 26.6244 13.7373 26.5372 13.7369 26.43L13.7368 26.4208Z" fill="#0C0C0C"/>
<path fill-rule="evenodd" clip-rule="evenodd" d="M13.8524 26.2701C13.906 26.2699 13.9496 26.3131 13.9498 26.3667C13.9503 26.4881 13.9102 26.64 13.8023 26.7356C13.8001 26.7375 13.7973 26.7404 13.7938 26.744C13.7699 26.7684 13.7153 26.8242 13.6232 26.8246C13.6124 26.8246 13.6006 26.8275 13.5726 26.8354C13.5719 26.8356 13.5712 26.8358 13.5704 26.836C13.5462 26.8429 13.5092 26.8534 13.4671 26.8536C13.4135 26.8539 13.3699 26.8106 13.3697 26.7571C13.3695 26.7035 13.4127 26.6599 13.4662 26.6597C13.4793 26.6596 13.493 26.6564 13.5196 26.6488C13.5209 26.6485 13.5223 26.6481 13.5236 26.6477C13.5467 26.6411 13.5827 26.6308 13.6223 26.6306C13.6276 26.6306 13.6296 26.6299 13.6298 26.6299L13.6298 26.6299C13.6298 26.6299 13.6298 26.6299 13.6298 26.6298C13.6299 26.6298 13.6307 26.6296 13.6328 26.628C13.6357 26.626 13.6394 26.6228 13.6465 26.616C13.6478 26.6148 13.6494 26.6133 13.6511 26.6116C13.6571 26.6058 13.6655 26.5977 13.6737 26.5904C13.7254 26.5446 13.7563 26.4559 13.7559 26.3675C13.7557 26.314 13.7989 26.2704 13.8524 26.2701Z" fill="#0C0C0C"/>
<path fill-rule="evenodd" clip-rule="evenodd" d="M13.6773 11.9993C13.7166 11.9737 13.7322 11.923 13.7133 11.8795L13.7128 11.8776L13.7117 11.8734C13.7108 11.8703 13.7095 11.8658 13.7078 11.8608C13.703 11.8471 13.6964 11.8368 13.6912 11.8298C13.6906 11.829 13.69 11.8283 13.6895 11.8276C13.6843 11.8176 13.6787 11.8105 13.6753 11.8065C13.6684 11.7985 13.6614 11.7925 13.6564 11.7885C13.6462 11.7804 13.6354 11.7741 13.6269 11.7695C13.618 11.7647 13.6085 11.7603 13.5994 11.7568L13.5992 11.7567C13.5939 11.7547 13.5773 11.7483 13.5583 11.7472L13.5545 11.7468C13.5544 11.7468 13.5543 11.7468 13.5542 11.7468C13.5516 11.7466 13.5396 11.7457 13.5258 11.7482C13.5164 11.7499 13.4855 11.7573 13.464 11.7852C13.4601 11.7842 13.4559 11.7835 13.4514 11.783C13.4274 11.7803 13.3845 11.7861 13.3579 11.8269C13.3386 11.8564 13.3416 11.8857 13.3423 11.8923C13.3435 11.9029 13.346 11.9112 13.3473 11.9152C13.3499 11.9232 13.3532 11.9303 13.3543 11.9326L13.3544 11.9328C13.3635 11.9583 13.3764 11.9835 13.3853 12.0007C13.3876 12.0053 13.3897 12.0093 13.3913 12.0126C13.3943 12.0187 13.3963 12.0253 13.3964 12.0448C13.3966 12.0984 13.4402 12.1416 13.4937 12.1414C13.5386 12.1412 13.5762 12.1106 13.5871 12.0692C13.5918 12.0673 13.5966 12.0649 13.6015 12.0619C13.6135 12.0547 13.6224 12.0458 13.6291 12.0368C13.6462 12.0307 13.6609 12.0201 13.6718 12.0066C13.6738 12.0042 13.6756 12.0017 13.6773 11.9993ZM13.5872 11.9239L13.6125 11.9104L13.5872 11.9239Z" fill="#0C0C0C"/>
<path fill-rule="evenodd" clip-rule="evenodd" d="M13.8051 11.8476C13.8355 11.9268 13.8106 12.0159 13.7458 12.0681C13.7299 12.0872 13.7103 12.1034 13.6878 12.1155C13.6806 12.1227 13.6725 12.1296 13.6634 12.136C13.6307 12.1961 13.5672 12.2371 13.4938 12.2374C13.3869 12.2379 13.2998 12.1517 13.2991 12.0448C13.2989 12.0446 13.2988 12.0443 13.2987 12.0441C13.2985 12.0436 13.2982 12.0432 13.298 12.0427C13.2898 12.0267 13.2754 11.9986 13.2643 11.9687C13.262 11.9636 13.2582 11.9546 13.2548 11.9444C13.2526 11.9375 13.2478 11.9219 13.2456 11.9017C13.2443 11.8893 13.2381 11.8314 13.2764 11.7728C13.319 11.7078 13.3819 11.6879 13.4289 11.685C13.4626 11.6614 13.4959 11.654 13.5083 11.6518C13.5344 11.6471 13.5562 11.6488 13.5612 11.6492L13.5621 11.6492L13.565 11.6495C13.5986 11.6517 13.6261 11.6623 13.6333 11.6651C13.6335 11.6652 13.6337 11.6653 13.6338 11.6653C13.6338 11.6653 13.6338 11.6653 13.6338 11.6653L13.634 11.6654M13.8051 11.8476L13.805 11.8471L13.8048 11.8466C13.8037 11.8425 13.8017 11.8357 13.799 11.8277C13.7907 11.8043 13.7798 11.7864 13.7709 11.774C13.7625 11.7594 13.754 11.7488 13.7488 11.7427C13.7364 11.7281 13.7242 11.7177 13.7161 11.7114C13.6999 11.6986 13.6838 11.6892 13.6724 11.6831M13.624 11.9171L13.6212 11.9106L13.6189 11.9019L13.6179 11.8982C13.6173 11.8961 13.6167 11.894 13.616 11.892C13.6153 11.89 13.6143 11.8884 13.6132 11.8868L13.6128 11.8863L13.6072 11.8792L13.603 11.8711C13.6025 11.8701 13.6019 11.8693 13.6012 11.8684C13.5998 11.8669 13.5981 11.8653 13.596 11.8637C13.5925 11.8609 13.588 11.858 13.5833 11.8554L13.6182 11.9208L13.624 11.9171ZM13.5974 11.9428L13.544 11.8425L13.5434 11.8426L13.5429 11.8426C13.543 11.8426 13.5429 11.8426 13.5429 11.8426C13.5424 11.8428 13.5416 11.8431 13.541 11.8434C13.5406 11.8436 13.5403 11.8437 13.5402 11.8438L13.5021 11.8933L13.4409 11.8785L13.4407 11.8784L13.4401 11.8785C13.4396 11.8785 13.4392 11.8786 13.4389 11.8787L13.4387 11.879C13.4386 11.8792 13.4386 11.8793 13.4385 11.8793C13.4385 11.8794 13.4385 11.8796 13.4384 11.8799C13.4384 11.8802 13.4384 11.8804 13.4384 11.8805C13.4384 11.8806 13.4384 11.8807 13.4384 11.881C13.4385 11.8814 13.4386 11.8819 13.4387 11.8825C13.4388 11.883 13.439 11.8835 13.4391 11.884C13.4394 11.8849 13.4399 11.8861 13.4405 11.8875C13.441 11.8888 13.4415 11.8899 13.4419 11.8908L13.4439 11.8951L13.4455 11.8994C13.452 11.9178 13.462 11.9376 13.4712 11.9555L13.3849 11.9998M13.5974 11.9428L13.5963 11.9444L13.5683 11.9544L13.5509 11.9781" fill="#0C0C0C"/>
<path fill-rule="evenodd" clip-rule="evenodd" d="M13.4994 16.2265C13.5317 16.2692 13.5233 16.33 13.4806 16.3623L12.7074 16.9475C12.6646 16.9798 12.6038 16.9714 12.5715 16.9287C12.5392 16.886 12.5476 16.8252 12.5903 16.7929L13.3635 16.2077C13.4062 16.1754 13.4671 16.1838 13.4994 16.2265Z" fill="#0C0C0C"/>
<path fill-rule="evenodd" clip-rule="evenodd" d="M13.3046 16.1296C13.3901 16.0649 13.5117 16.0818 13.5763 16.1672C13.641 16.2526 13.6241 16.3742 13.5387 16.4388L12.7655 17.024C12.6801 17.0887 12.5585 17.0718 12.4938 16.9864C12.4292 16.901 12.446 16.7794 12.5314 16.7147L13.3046 16.1296Z" fill="#0C0C0C"/>
<path fill-rule="evenodd" clip-rule="evenodd" d="M13.7593 12.0356C13.7115 12.0598 13.6532 12.0406 13.629 11.9928C13.6215 11.978 13.6169 11.9636 13.6139 11.9527C13.6116 11.9441 13.6095 11.9348 13.608 11.9282C13.6077 11.9268 13.6074 11.9256 13.6071 11.9245C13.6044 11.9126 13.6029 11.9084 13.6027 11.9078C13.6015 11.9059 13.6004 11.9047 13.5983 11.9021C13.5961 11.8994 13.5927 11.8953 13.5868 11.8876C13.5788 11.8774 13.5647 11.8586 13.5555 11.8338C13.5543 11.8319 13.5527 11.8295 13.5509 11.8271C13.5188 11.8081 13.4992 11.7714 13.504 11.732C13.5104 11.6788 13.5587 11.6409 13.6119 11.6473C13.6328 11.6499 13.6483 11.6581 13.6563 11.663C13.6652 11.6684 13.6724 11.6743 13.6775 11.6789C13.6878 11.6882 13.6965 11.6984 13.703 11.7068C13.7099 11.7156 13.7162 11.7249 13.7216 11.7337C13.7254 11.74 13.7319 11.7512 13.7366 11.7642C13.7372 11.7651 13.7382 11.7665 13.7399 11.7686C13.7412 11.7703 13.7426 11.7721 13.7445 11.7744C13.7448 11.7748 13.7451 11.7752 13.7454 11.7756C13.747 11.7775 13.7488 11.7798 13.7506 11.7821C13.755 11.7875 13.7609 11.7952 13.7665 11.804C13.785 11.8328 13.7923 11.8642 13.7959 11.8799C13.796 11.8802 13.796 11.8806 13.7961 11.8809C13.7967 11.8833 13.7971 11.8853 13.7976 11.8872C13.7989 11.8933 13.7998 11.8973 13.801 11.9013C13.8017 11.9042 13.8022 11.9055 13.8024 11.9059C13.8261 11.9536 13.8069 12.0115 13.7593 12.0356Z" fill="#0C0C0C"/>
<path fill-rule="evenodd" clip-rule="evenodd" d="M13.4937 16.8464C13.4974 16.8668 13.5089 16.9342 13.4584 16.9852C13.4278 17.016 13.3886 17.0234 13.3687 17.026C13.3449 17.029 13.3206 17.0283 13.3006 17.0267C13.2669 17.0241 13.232 17.0179 13.2141 17.0147C13.2109 17.0141 13.2082 17.0136 13.2062 17.0133C13.1714 17.0074 13.1326 17.0077 13.0853 17.0099C13.0776 17.0103 13.0695 17.0107 13.0611 17.0112C13.0219 17.0132 12.9767 17.0156 12.9332 17.0134C12.9182 17.0126 12.8695 17.0073 12.8427 16.9592C12.8382 16.9511 12.835 16.943 12.833 16.9352C12.8173 16.926 12.798 16.9094 12.7879 16.8813C12.7761 16.8483 12.7843 16.8197 12.7909 16.8049C12.802 16.7794 12.8214 16.763 12.8276 16.7577L12.8277 16.7577C12.8374 16.7495 12.848 16.7421 12.8572 16.736C12.876 16.7237 12.8973 16.7117 12.9133 16.7028C12.9341 16.6914 12.9395 16.6887 12.9393 16.6888C12.9616 16.6743 12.9878 16.6597 13.0119 16.6461L13.0138 16.6451C13.0396 16.6306 13.0645 16.6166 13.088 16.6018C13.1391 16.5697 13.165 16.5448 13.1735 16.5276C13.1897 16.4949 13.2219 16.4753 13.256 16.4737C13.2595 16.4695 13.265 16.4632 13.2711 16.4573C13.2749 16.4535 13.2814 16.4475 13.2898 16.4418C13.2957 16.4378 13.3156 16.4247 13.3442 16.4233C13.3609 16.4226 13.3808 16.4258 13.3999 16.4372C13.4187 16.4483 13.4304 16.4635 13.4373 16.4764C13.4494 16.4989 13.4499 16.5205 13.45 16.5286C13.4502 16.574 13.4285 16.6103 13.4189 16.6262C13.416 16.631 13.4131 16.6356 13.4107 16.6393L13.4106 16.6396C13.4119 16.6456 13.4133 16.6514 13.4148 16.6576C13.4167 16.6656 13.4187 16.6743 13.421 16.6844C13.4211 16.6848 13.4212 16.6851 13.4212 16.6854C13.4528 16.711 13.4793 16.7501 13.4833 16.8017C13.4835 16.8024 13.484 16.805 13.4855 16.8106C13.4857 16.8116 13.486 16.8127 13.4863 16.8138C13.4883 16.8217 13.4914 16.8341 13.4937 16.8464ZM13.4027 16.5881C13.4027 16.5881 13.4027 16.5884 13.4026 16.5891C13.4026 16.5884 13.4027 16.5881 13.4027 16.5881ZM12.8969 16.7572C12.8969 16.7571 12.8977 16.7571 12.8992 16.7572C12.8976 16.7573 12.8968 16.7572 12.8969 16.7572ZM13.0125 16.949C13.0125 16.949 13.0126 16.9489 13.0129 16.9486C13.0126 16.9489 13.0125 16.949 13.0125 16.949Z" fill="#0C0C0C"/>
<path fill-rule="evenodd" clip-rule="evenodd" d="M13.5192 16.6449C13.5325 16.6176 13.5476 16.5763 13.5474 16.5273C13.5473 16.5141 13.5466 16.4733 13.5232 16.4297C13.5099 16.4047 13.4869 16.3749 13.4498 16.3529C13.412 16.3305 13.3727 16.3241 13.3401 16.3256C13.2843 16.3282 13.2461 16.3537 13.2358 16.3607C13.2236 16.3689 13.214 16.3773 13.2077 16.3832C13.1584 16.3972 13.1147 16.4307 13.0891 16.4796M13.1026 16.9113C13.0975 16.8987 13.0888 16.8847 13.0737 16.8726C13.0419 16.847 13.0075 16.8502 12.9933 16.8532C12.9788 16.8562 12.9684 16.8619 12.9645 16.8641C12.9596 16.8669 12.9559 16.8696 12.9539 16.8712C12.9497 16.8744 12.9468 16.8772 12.9455 16.8784C12.9428 16.881 12.9409 16.8832 12.9402 16.884C12.9386 16.8858 12.9375 16.8872 12.9371 16.8877C12.9369 16.888 12.9366 16.8882 12.9364 16.8885L12.9749 16.9164C12.9852 16.9164 12.9957 16.9161 13.0062 16.9158C13.0062 16.9158 13.0062 16.9158 13.0062 16.9158C13.0228 16.9152 13.0396 16.9143 13.0564 16.9134C13.0647 16.913 13.0731 16.9125 13.0812 16.9122C13.0883 16.9118 13.0955 16.9115 13.1026 16.9113Z" fill="#0C0C0C"/>
<path fill-rule="evenodd" clip-rule="evenodd" d="M4.4905 14.0936C4.75827 14.0924 4.97628 14.3086 4.97745 14.5763L5.01531 23.3035C5.01647 23.5713 4.80034 23.7893 4.53258 23.7904C4.26481 23.7916 4.0468 23.5755 4.04564 23.3077L4.00777 14.5806C4.00661 14.3128 4.22274 14.0948 4.4905 14.0936Z" fill="#0C0C0C"/>
<path fill-rule="evenodd" clip-rule="evenodd" d="M4.49003 13.9965C4.81135 13.9951 5.07297 14.2544 5.07436 14.5757L5.11223 23.3028C5.11362 23.6242 4.85427 23.8858 4.53294 23.8872C4.21162 23.8886 3.95001 23.6292 3.94861 23.3079L3.91075 14.5808C3.90936 14.2595 4.16871 13.9979 4.49003 13.9965ZM4.88043 14.5766C4.8795 14.3624 4.70509 14.1895 4.49087 14.1904C4.27666 14.1913 4.10376 14.3657 4.10469 14.58L4.14255 23.307C4.14348 23.5213 4.31789 23.6942 4.5321 23.6932C4.74632 23.6923 4.91922 23.5179 4.91829 23.3037L4.88043 14.5766Z" fill="#0C0C0C"/>
<path fill-rule="evenodd" clip-rule="evenodd" d="M1.28162 29.4629C0.884797 28.6745 0.800904 27.6416 1.37268 26.4085L2.25239 26.8164C1.79433 27.8043 1.89523 28.5252 2.14777 29.0269C2.41267 29.5532 2.8745 29.896 3.20641 30.0425L2.81472 30.9296C2.31819 30.7103 1.66608 30.2267 1.28162 29.4629Z" fill="#0C0C0C"/>
<path fill-rule="evenodd" clip-rule="evenodd" d="M3.33432 29.9931L2.86429 31.0575L2.77559 31.0184C2.26262 30.7919 1.59147 30.2942 1.19504 29.5066C0.783768 28.6895 0.701601 27.6254 1.28474 26.3678L1.32554 26.2798L2.38119 26.7693L2.3404 26.8573C1.89373 27.8206 1.99629 28.5103 2.23442 28.9834C2.48738 29.486 2.93021 29.8146 3.24562 29.9539L3.33432 29.9931ZM3.07967 30.0897C2.74187 29.918 2.31548 29.5758 2.06119 29.0706C1.80207 28.5558 1.70097 27.832 2.12461 26.8641L1.4207 26.5377C0.90463 27.7068 0.995238 28.6783 1.36827 29.4194C1.71843 30.1151 2.29884 30.5717 2.76599 30.8L3.07967 30.0897Z" fill="#0C0C0C"/>
<path fill-rule="evenodd" clip-rule="evenodd" d="M0.886018 10.0792C0.89288 10.6126 1.0856 11.175 1.48606 11.7595L2.286 11.2114C1.96726 10.7462 1.85948 10.3668 1.85562 10.0667C1.8518 9.76923 1.94943 9.50564 2.11951 9.26746C2.4745 8.77034 3.12485 8.41747 3.6392 8.25626L3.34918 7.33095C2.72815 7.5256 1.85522 7.96896 1.33038 8.70394C1.06054 9.08181 0.879123 9.54324 0.886018 10.0792Z" fill="#0C0C0C"/>
<path fill-rule="evenodd" clip-rule="evenodd" d="M3.76023 8.32006L3.41221 7.2097L3.31968 7.2387C2.688 7.43669 1.79279 7.88909 1.25096 8.64786C0.97116 9.03968 0.781346 9.52089 0.788548 10.0807C0.795711 10.6374 0.996937 11.2182 1.40556 11.8146L1.46037 11.8946L2.42029 11.2369L2.36549 11.1569C2.05494 10.7036 1.95564 10.3425 1.95208 10.0657C1.94856 9.79207 2.03784 9.54826 2.19792 9.32409C2.53594 8.85073 3.16405 8.50692 3.6677 8.34907L3.76023 8.32006ZM3.5176 8.19439C3.00818 8.37078 2.39064 8.72049 2.04009 9.21138C1.86001 9.46357 1.75402 9.74695 1.75816 10.0682C1.76208 10.3732 1.8657 10.7443 2.15171 11.1858L1.51159 11.6244C1.15632 11.0813 0.988723 10.5643 0.98247 10.0782C0.975882 9.56614 1.14891 9.12449 1.40878 8.76057C1.89154 8.08453 2.68406 7.65867 3.28551 7.45391L3.5176 8.19439Z" fill="#0C0C0C"/>
<path fill-rule="evenodd" clip-rule="evenodd" d="M2.26775 25.2587C2.88796 24.5126 3.65529 23.6455 4.17254 23.0748L4.89102 23.726C4.37886 24.2911 3.62155 25.147 3.01343 25.8786C2.70821 26.2458 2.44713 26.5738 2.27399 26.8153C2.18556 26.9387 2.13098 27.0245 2.10444 27.0748C2.0989 27.0853 2.09634 27.091 2.09569 27.0924C2.0965 27.0905 2.10011 27.0812 2.10392 27.0662C2.10769 27.0512 2.11839 27.0051 2.11328 26.9414C2.1079 26.8743 2.08146 26.7575 1.97967 26.6565L1.29698 27.3452C1.18545 27.2346 1.15352 27.1039 1.1467 27.0189C1.14016 26.9374 1.15348 26.8694 1.16375 26.8287C1.18435 26.7472 1.21964 26.6737 1.24694 26.622C1.30506 26.5119 1.39077 26.3831 1.48587 26.2504C1.67979 25.9798 1.95881 25.6303 2.26775 25.2587ZM2.09553 27.0928C2.09552 27.0928 2.09558 27.0927 2.09569 27.0924C2.09558 27.0927 2.09553 27.0928 2.09553 27.0928Z" fill="#0C0C0C"/>
<path fill-rule="evenodd" clip-rule="evenodd" d="M5.02758 23.7208L4.96246 23.7926C4.4508 24.3571 3.69449 25.2119 3.08759 25.942C2.78273 26.3088 2.52345 26.6346 2.35239 26.8733C2.2646 26.9957 2.21315 27.0772 2.18978 27.1215C2.18616 27.1283 2.1845 27.1319 2.1842 27.1326L2.18382 27.1334L2.18284 27.1356C2.18272 27.1359 2.18188 27.1376 2.18071 27.1398C2.18038 27.1405 2.17826 27.1445 2.17512 27.1491C2.17464 27.1498 2.16785 27.1602 2.15618 27.1696L2.15591 27.1698C2.15204 27.173 2.12785 27.1928 2.09076 27.1912C2.06725 27.1901 2.04504 27.1805 2.02816 27.1644C2.01576 27.1526 2.00896 27.1399 2.00523 27.1307C2.00506 27.1303 2.0049 27.1299 2.00474 27.1294C2.00416 27.128 2.00367 27.1266 2.00325 27.1254C1.99765 27.1087 1.99808 27.095 1.99818 27.0917L1.99818 27.0915C1.99836 27.0855 1.99906 27.0808 1.99943 27.0785C2.0002 27.0738 2.00116 27.0703 2.0015 27.069C2.0023 27.066 2.00307 27.0638 2.00328 27.0631C2.00385 27.0615 2.00435 27.0602 2.00447 27.0598L2.0052 27.058L2.00541 27.0575C2.00557 27.057 2.00737 27.0522 2.00948 27.0439C2.01184 27.0345 2.02016 26.9998 2.01621 26.9506C2.01335 26.9149 2.00274 26.8606 1.97064 26.8044L1.29716 27.4838L1.2283 27.4155C1.09528 27.2836 1.05764 27.128 1.04963 27.0281C1.04193 26.9321 1.05764 26.8527 1.06932 26.8064C1.09273 26.7137 1.13219 26.6323 1.16078 26.5782C1.22205 26.4621 1.31086 26.329 1.40664 26.1953C1.60264 25.9219 1.88345 25.5703 2.19276 25.1982C2.81419 24.4506 3.58251 23.5824 4.10027 23.0112L4.16539 22.9393L5.02758 23.7208ZM4.75369 23.7343L4.1789 23.2133C3.66438 23.7826 2.93542 24.6082 2.3419 25.3221C2.03334 25.6933 1.75611 26.0407 1.56426 26.3083C1.46985 26.44 1.38725 26.5646 1.33228 26.6687C1.30625 26.718 1.27514 26.7835 1.25735 26.8539C1.2485 26.889 1.23757 26.9455 1.24295 27.0126C1.24702 27.0634 1.26191 27.1329 1.30406 27.2013L1.97866 26.5209L2.04752 26.5891C2.11237 26.6534 2.152 26.7231 2.17596 26.7867C2.18206 26.778 2.18833 26.7692 2.19476 26.7603C2.36999 26.5158 2.63285 26.1857 2.93845 25.818C3.52249 25.1155 4.24341 24.2989 4.75369 23.7343Z" fill="#0C0C0C"/>
<path fill-rule="evenodd" clip-rule="evenodd" d="M2.21304 12.6433C2.83971 13.384 3.61453 14.2444 4.13671 14.8105L4.84952 14.1531C4.33247 13.5925 3.56776 12.7432 2.95332 12.017C2.64492 11.6524 2.38101 11.3267 2.20578 11.0867C2.11628 10.9641 2.06096 10.8787 2.03398 10.8287C2.02835 10.8183 2.02574 10.8126 2.02508 10.8111C2.02591 10.8131 2.0296 10.8223 2.03353 10.8373C2.03744 10.8522 2.04854 10.8982 2.04398 10.962C2.03918 11.0291 2.01376 11.1462 1.91284 11.248L1.22421 10.5653C1.11364 10.6768 1.08284 10.8078 1.07677 10.8929C1.07093 10.9745 1.08484 11.0423 1.09546 11.0829C1.11677 11.1643 1.15269 11.2374 1.18045 11.2889C1.23952 11.3985 1.32634 11.5266 1.42258 11.6584C1.61885 11.9273 1.90089 12.2743 2.21304 12.6433ZM2.02491 10.8107C2.02491 10.8107 2.02497 10.8108 2.02508 10.8111C2.02497 10.8108 2.02491 10.8107 2.02491 10.8107Z" fill="#0C0C0C"/>
<path fill-rule="evenodd" clip-rule="evenodd" d="M13.4906 14.9463C13.406 14.0178 13.1214 12.9078 12.8815 12.1672L13.804 11.8684C14.0555 12.6449 14.3627 13.8306 14.4563 14.8584C14.5025 15.3661 14.5015 15.8815 14.3877 16.2999C14.2725 16.7235 13.9969 17.1714 13.4295 17.2496L13.2972 16.289C13.2978 16.2889 13.2986 16.2888 13.2994 16.2887C13.3179 16.2868 13.3883 16.2797 13.452 16.0453C13.5202 15.7948 13.5335 15.4169 13.4906 14.9463Z" fill="#0C0C0C"/>
<path fill-rule="evenodd" clip-rule="evenodd" d="M13.8723 26.7954L13.218 25.8331L13.1378 25.8877C11.6235 26.9174 9.28193 28.3368 7.17896 29.2559C6.12218 29.7177 5.16482 30.0355 4.4201 30.1306C3.63646 30.2307 3.32341 30.0622 3.20663 29.8815L3.15401 29.8L2.17665 30.4315L2.22928 30.513C2.73778 31.3 3.69886 31.3958 4.56751 31.2848C5.47661 31.1687 6.55384 30.7989 7.64492 30.3221C9.83764 29.3639 12.2448 27.9021 13.7921 26.8499L13.8723 26.7954ZM13.6028 26.7439C12.0589 27.7879 9.70759 29.2091 7.56726 30.1444C6.48191 30.6187 5.42465 30.9799 4.54294 31.0925C3.72164 31.1973 2.90343 31.1015 2.44743 30.4875L3.10271 30.0641C3.30928 30.2954 3.72169 30.4153 4.44467 30.323C5.2168 30.2243 6.19414 29.8979 7.25662 29.4336C9.33762 28.5242 11.6451 27.1311 13.1666 26.1024L13.6028 26.7439Z" fill="#0C0C0C"/>
<path fill-rule="evenodd" clip-rule="evenodd" d="M7.60608 30.2325C9.7913 29.2775 12.1929 27.8193 13.7376 26.7689L13.1923 25.9671C11.6753 26.9987 9.32822 28.4216 7.21778 29.3439C6.15816 29.807 5.19081 30.1291 4.43239 30.226C3.6407 30.3271 3.27432 30.1641 3.1252 29.9333L2.31074 30.4596C2.78642 31.1958 3.6931 31.298 4.55523 31.1878C5.45063 31.0735 6.51787 30.708 7.60608 30.2325Z" fill="#0C0C0C"/>
<path fill-rule="evenodd" clip-rule="evenodd" d="M13.8066 11.654L13.1607 12.6218L13.08 12.568C11.5569 11.5514 9.20303 10.1524 7.09216 9.25163C6.03141 8.799 5.07134 8.48952 4.32581 8.40088C3.54134 8.3076 3.22976 8.47876 3.11456 8.6605L3.06264 8.7424L2.07984 8.1194L2.13176 8.0375C2.63341 7.24612 3.59363 7.14199 4.46321 7.24539C5.37327 7.3536 6.45367 7.71405 7.54885 8.18137C9.7498 9.12053 12.1695 10.5613 13.726 11.6001L13.8066 11.654ZM13.5376 11.7077C11.9847 10.6772 9.6211 9.27647 7.47274 8.35974C6.38331 7.89488 5.32296 7.54292 4.44031 7.43797C3.61812 7.34021 2.80078 7.44315 2.35012 8.06111L3.00905 8.47881C3.21361 8.24568 3.62496 8.12224 4.34871 8.20829C5.12167 8.3002 6.10181 8.61818 7.16828 9.07325C9.25709 9.96456 11.5766 11.3375 13.107 12.353L13.5376 11.7077Z" fill="#0C0C0C"/>
<path fill-rule="evenodd" clip-rule="evenodd" d="M7.51067 8.26906C9.70411 9.20501 12.1183 10.6423 13.672 11.6793L13.1337 12.4858C11.6078 11.4674 9.24846 10.0649 7.1301 9.16094C6.0665 8.70709 5.0964 8.39336 4.33716 8.30309C3.54463 8.20885 3.17967 8.37501 3.03256 8.60708L2.21357 8.08792C2.68284 7.34762 3.5886 7.23756 4.45165 7.34018C5.34801 7.44676 6.41838 7.80297 7.51067 8.26906Z" fill="#0C0C0C"/>
<circle cx="10.25" cy="14.25" r="1.25" fill="#D9D9D9"/>
<circle cx="7.25" cy="21.25" r="1.25" fill="#D9D9D9"/>
<circle cx="11" cy="22.6667" r="0.666667" fill="#D9D9D9"/>
<circle cx="12.3334" cy="24" r="0.666667" fill="#D9D9D9"/>
<circle cx="9.66667" cy="24" r="0.666667" fill="#D9D9D9"/>
<circle cx="11" cy="25.3333" r="0.666667" fill="#D9D9D9"/>
<path d="M6.589 15.088H7.184V16.082H8.157V16.649H7.184V17.643H6.589V16.649H5.609V16.082H6.589V15.088Z" fill="white"/>
<rect x="87.8489" y="23.1472" width="6.12901" height="8.79662" transform="rotate(166.095 87.8489 23.1472)" fill="#E9D3FF" stroke="#16001E" stroke-width="0.3"/>
<rect x="84.0791" y="19.2767" width="0.969684" height="2.90906" transform="rotate(166.095 84.0791 19.2767)" fill="#16001E"/>
<rect x="80.746" y="38.1871" width="24.463" height="10.2696" transform="rotate(-148 80.746 38.1871)" fill="#6C668D"/>
<path d="M68.7281 18.0665C70.9661 13.6622 76.9503 5.66118 82.9836 8.89096C89.0169 12.1207 93.8361 4.97607 95.4916 1.00002" stroke="black" stroke-width="2"/>
<path d="M6.448 40.016H8.488V43.424H11.824V45.368H8.488V48.776H6.448V45.368H3.088V43.424H6.448V40.016ZM30.2753 48.512C30.0353 48.72 29.6993 48.928 29.2673 49.136C28.8353 49.328 28.3553 49.504 27.8273 49.664C27.3153 49.824 26.7793 49.952 26.2193 50.048C25.6753 50.144 25.1633 50.192 24.6833 50.192C23.2913 50.192 22.0353 49.976 20.9153 49.544C19.8113 49.112 18.8593 48.512 18.0593 47.744C17.2753 46.976 16.6673 46.072 16.2353 45.032C15.8193 43.992 15.6113 42.864 15.6113 41.648C15.6113 40.208 15.8433 38.92 16.3073 37.784C16.7873 36.632 17.4353 35.664 18.2513 34.88C19.0833 34.08 20.0353 33.48 21.1073 33.08C22.1793 32.664 23.3153 32.456 24.5153 32.456C25.5233 32.456 26.4593 32.576 27.3233 32.816C28.1873 33.056 28.9473 33.36 29.6033 33.728L28.8113 35.864C28.4913 35.672 28.0913 35.496 27.6113 35.336C27.1473 35.176 26.6673 35.048 26.1713 34.952C25.6753 34.84 25.2113 34.784 24.7793 34.784C23.7553 34.784 22.8273 34.944 21.9953 35.264C21.1633 35.568 20.4513 36.016 19.8593 36.608C19.2673 37.184 18.8113 37.888 18.4913 38.72C18.1713 39.536 18.0113 40.456 18.0113 41.48C18.0113 42.424 18.1713 43.288 18.4913 44.072C18.8113 44.856 19.2673 45.536 19.8593 46.112C20.4513 46.672 21.1553 47.112 21.9713 47.432C22.8033 47.736 23.7153 47.888 24.7073 47.888C25.2993 47.888 25.8833 47.832 26.4593 47.72C27.0353 47.592 27.5313 47.416 27.9473 47.192V43.736H24.4913V41.504H30.2753V48.512ZM38.2908 50.24C37.3628 50.24 36.5148 50.04 35.7467 49.64C34.9948 49.24 34.3948 48.656 33.9468 47.888C33.5148 47.104 33.2988 46.152 33.2988 45.032C33.2988 43.928 33.5308 42.976 33.9948 42.176C34.4588 41.36 35.0748 40.736 35.8428 40.304C36.6268 39.872 37.4828 39.656 38.4108 39.656C39.3388 39.656 40.1228 39.872 40.7628 40.304C41.4028 40.72 41.8908 41.216 42.2268 41.792L42.0828 42.176L42.2988 40.064H44.3628V50H42.1308V47.408L42.3708 47.984C42.3068 48.144 42.1628 48.352 41.9388 48.608C41.7308 48.848 41.4428 49.096 41.0748 49.352C40.7228 49.608 40.3148 49.824 39.8508 50C39.3868 50.16 38.8668 50.24 38.2908 50.24ZM38.8908 48.392C39.4508 48.392 39.9548 48.288 40.4028 48.08C40.8508 47.872 41.2188 47.584 41.5068 47.216C41.8108 46.832 42.0188 46.376 42.1308 45.848V43.904C42.0028 43.424 41.7788 43.008 41.4588 42.656C41.1388 42.288 40.7548 42.008 40.3068 41.816C39.8588 41.608 39.3628 41.504 38.8188 41.504C38.2268 41.504 37.6828 41.648 37.1868 41.936C36.6908 42.224 36.2908 42.624 35.9868 43.136C35.6988 43.648 35.5548 44.248 35.5548 44.936C35.5548 45.576 35.7068 46.16 36.0108 46.688C36.3148 47.216 36.7228 47.632 37.2348 47.936C37.7468 48.24 38.2988 48.392 38.8908 48.392ZM50.2173 40.064L50.4093 42.296L50.3133 42.104C50.6813 41.352 51.2013 40.76 51.8733 40.328C52.5613 39.896 53.3453 39.68 54.2253 39.68C54.7853 39.68 55.2813 39.768 55.7133 39.944C56.1453 40.12 56.4973 40.376 56.7693 40.712C57.0573 41.032 57.2413 41.432 57.3213 41.912L57.2013 41.984C57.5853 41.264 58.1133 40.704 58.7853 40.304C59.4733 39.888 60.1933 39.68 60.9453 39.68C61.9213 39.68 62.6893 39.96 63.2493 40.52C63.8253 41.064 64.1213 41.776 64.1373 42.656V50H61.9053V43.448C61.8893 42.936 61.7613 42.512 61.5213 42.176C61.2973 41.824 60.8973 41.632 60.3213 41.6C59.7453 41.6 59.2253 41.776 58.7613 42.128C58.3133 42.48 57.9613 42.936 57.7053 43.496C57.4493 44.04 57.3133 44.632 57.2973 45.272V50H55.0653V43.448C55.0493 42.936 54.9133 42.512 54.6573 42.176C54.4173 41.824 54.0093 41.632 53.4333 41.6C52.8413 41.6 52.3213 41.776 51.8733 42.128C51.4253 42.48 51.0733 42.936 50.8173 43.496C50.5773 44.056 50.4573 44.656 50.4573 45.296V50H48.2253V40.064H50.2173ZM72.6379 50.24C71.5019 50.24 70.5259 50.016 69.7099 49.568C68.8939 49.104 68.2619 48.48 67.8139 47.696C67.3819 46.896 67.1659 45.984 67.1659 44.96C67.1659 43.984 67.4139 43.096 67.9099 42.296C68.4059 41.496 69.0699 40.856 69.9019 40.376C70.7339 39.896 71.6619 39.656 72.6859 39.656C73.9979 39.656 75.0859 40.04 75.9499 40.808C76.8139 41.576 77.3979 42.632 77.7019 43.976L69.5179 46.856L68.9899 45.536L75.7099 43.088L75.2299 43.4C75.0379 42.872 74.7179 42.416 74.2699 42.032C73.8219 41.632 73.2379 41.432 72.5179 41.432C71.9099 41.432 71.3659 41.584 70.8859 41.888C70.4059 42.176 70.0299 42.576 69.7579 43.088C69.4859 43.6 69.3499 44.184 69.3499 44.84C69.3499 45.528 69.4939 46.136 69.7819 46.664C70.0699 47.176 70.4619 47.584 70.9579 47.888C71.4699 48.176 72.0459 48.32 72.6859 48.32C73.1179 48.32 73.5339 48.24 73.9339 48.08C74.3499 47.92 74.7339 47.712 75.0859 47.456L76.1179 49.112C75.6219 49.448 75.0619 49.72 74.4379 49.928C73.8299 50.136 73.2299 50.24 72.6379 50.24ZM83.2827 50.192C82.5787 50.192 81.8907 50.072 81.2187 49.832C80.5627 49.576 80.0187 49.2 79.5867 48.704L80.5227 47.408C80.9387 47.808 81.3627 48.112 81.7947 48.32C82.2427 48.512 82.6827 48.608 83.1147 48.608C83.4347 48.608 83.7307 48.568 84.0027 48.488C84.2747 48.408 84.4907 48.28 84.6507 48.104C84.8267 47.912 84.9147 47.656 84.9147 47.336C84.9147 46.984 84.7947 46.704 84.5547 46.496C84.3307 46.288 84.0347 46.12 83.6667 45.992C83.3147 45.864 82.9387 45.744 82.5387 45.632C81.7227 45.36 81.0987 44.984 80.6667 44.504C80.2347 44.024 80.0187 43.44 80.0187 42.752C80.0187 42.224 80.1467 41.736 80.4027 41.288C80.6747 40.824 81.0667 40.448 81.5787 40.16C82.1067 39.872 82.7547 39.728 83.5227 39.728C84.2107 39.728 84.8267 39.816 85.3707 39.992C85.9147 40.152 86.4267 40.424 86.9067 40.808L86.0187 42.2C85.7307 41.896 85.3867 41.672 84.9867 41.528C84.5867 41.384 84.2267 41.304 83.9067 41.288C83.6347 41.272 83.3707 41.312 83.1147 41.408C82.8747 41.504 82.6747 41.64 82.5147 41.816C82.3547 41.992 82.2747 42.2 82.2747 42.44C82.2747 42.776 82.3867 43.048 82.6107 43.256C82.8347 43.464 83.1227 43.632 83.4747 43.76C83.8427 43.872 84.2027 43.992 84.5547 44.12C85.0507 44.264 85.4907 44.456 85.8747 44.696C86.2587 44.936 86.5627 45.232 86.7867 45.584C87.0267 45.936 87.1467 46.376 87.1467 46.904C87.1467 47.496 87.0027 48.048 86.7147 48.56C86.4427 49.056 86.0187 49.456 85.4427 49.76C84.8827 50.048 84.1627 50.192 83.2827 50.192Z" fill="#0C0C0C"/>
<path d="M21.072 30.24C20.144 30.24 19.296 30.04 18.528 29.64C17.776 29.24 17.176 28.656 16.728 27.888C16.296 27.104 16.08 26.152 16.08 25.032C16.08 23.928 16.312 22.976 16.776 22.176C17.24 21.36 17.856 20.736 18.624 20.304C19.408 19.872 20.264 19.656 21.192 19.656C22.12 19.656 22.904 19.872 23.544 20.304C24.184 20.72 24.672 21.216 25.008 21.792L24.864 22.176L25.08 20.064H27.144V30H24.912V27.408L25.152 27.984C25.088 28.144 24.944 28.352 24.72 28.608C24.512 28.848 24.224 29.096 23.856 29.352C23.504 29.608 23.096 29.824 22.632 30C22.168 30.16 21.648 30.24 21.072 30.24ZM21.672 28.392C22.232 28.392 22.736 28.288 23.184 28.08C23.632 27.872 24 27.584 24.288 27.216C24.592 26.832 24.8 26.376 24.912 25.848V23.904C24.784 23.424 24.56 23.008 24.24 22.656C23.92 22.288 23.536 22.008 23.088 21.816C22.64 21.608 22.144 21.504 21.6 21.504C21.008 21.504 20.464 21.648 19.968 21.936C19.472 22.224 19.072 22.624 18.768 23.136C18.48 23.648 18.336 24.248 18.336 24.936C18.336 25.576 18.488 26.16 18.792 26.688C19.096 27.216 19.504 27.632 20.016 27.936C20.528 28.24 21.08 28.392 21.672 28.392ZM35.0385 30.288L29.5185 20.064H32.1585L35.9025 27.96L34.5345 27.912L37.9665 20.064H40.4625L35.1585 30.288H35.0385ZM42.8659 20.064H45.0979V30H42.8659V20.064ZM42.6979 16.464C42.6979 16.112 42.8339 15.816 43.1059 15.576C43.3939 15.336 43.7059 15.216 44.0419 15.216C44.3779 15.216 44.6739 15.336 44.9299 15.576C45.2019 15.816 45.3379 16.112 45.3379 16.464C45.3379 16.832 45.2019 17.136 44.9299 17.376C44.6739 17.6 44.3779 17.712 44.0419 17.712C43.7059 17.712 43.3939 17.592 43.1059 17.352C42.8339 17.112 42.6979 16.816 42.6979 16.464ZM52.9916 30.24C52.0796 30.24 51.2476 30.024 50.4956 29.592C49.7596 29.144 49.1756 28.52 48.7436 27.72C48.3116 26.904 48.0956 25.968 48.0956 24.912C48.0956 23.808 48.3196 22.864 48.7676 22.08C49.2316 21.296 49.8556 20.696 50.6396 20.28C51.4236 19.864 52.3036 19.656 53.2796 19.656C54.0636 19.656 54.8076 19.824 55.5116 20.16C56.2316 20.496 56.7916 20.96 57.1916 21.552L57.0956 22.344V11.424H59.3036V30H57.0716V27.528L57.3116 28.152C56.8476 28.76 56.2476 29.264 55.5116 29.664C54.7756 30.048 53.9356 30.24 52.9916 30.24ZM53.6876 28.344C54.2796 28.344 54.8076 28.24 55.2716 28.032C55.7356 27.808 56.1196 27.504 56.4236 27.12C56.7276 26.736 56.9436 26.28 57.0716 25.752V23.88C56.9436 23.4 56.7116 22.984 56.3756 22.632C56.0556 22.264 55.6636 21.976 55.1996 21.768C54.7516 21.544 54.2476 21.432 53.6876 21.432C53.0796 21.432 52.5196 21.584 52.0076 21.888C51.5116 22.176 51.1116 22.576 50.8076 23.088C50.5036 23.6 50.3516 24.192 50.3516 24.864C50.3516 25.52 50.5036 26.112 50.8076 26.64C51.1116 27.152 51.5196 27.568 52.0316 27.888C52.5436 28.192 53.0956 28.344 53.6876 28.344Z" fill="#0C0C0C"/>
</svg>
